<?xml version="1.0" encoding="utf-8"?>
<!-- Generator: Avocode 2.5.2 - http://avocode.com -->
<svg height="40" width="40" xmlns:xlink="http://www.w3.org/1999/xlink" xmlns="http://www.w3.org/2000/svg" viewBox="0 0 40 40">
    <path fill="#f7941d" fill-rule="evenodd" d="M 38.46 0 C 38.46 0 39.99 0 39.99 0 C 39.99 0 31.02 15.63 31.02 15.63 C 33.3 18.22 34.69 21.61 34.69 25.33 C 34.69 33.43 28.15 40 20.08 40 C 12.02 40 5.48 33.43 5.48 25.33 C 5.48 21.65 6.83 18.3 9.06 15.73 C 9.06 15.73 0.01 0 0.01 0 C 0.01 0 1.54 0 1.54 0 C 1.54 0 10.01 14.72 10.01 14.72 C 10.66 14.1 11.36 13.54 12.11 13.05 C 12.11 13.05 4.61 0 4.61 0 C 4.61 0 6.14 0 6.14 0 C 6.14 0 13.25 12.37 13.25 12.37 C 14.06 11.94 14.92 11.58 15.81 11.31 C 15.81 11.31 9.3 0 9.3 0 C 9.3 0 10.84 0 10.84 0 C 10.84 0 17.14 10.97 17.14 10.97 C 18.09 10.77 19.08 10.66 20.08 10.66 C 21.05 10.66 22 10.76 22.91 10.94 C 22.91 10.94 29.19 0 29.19 0 C 29.19 0 30.72 0 30.72 0 C 30.72 0 24.25 11.28 24.25 11.28 C 25.19 11.56 26.1 11.93 26.95 12.39 C 26.95 12.39 33.87 0 33.87 0 C 33.87 0 35.35 0 35.35 0 C 35.35 0 28.07 13.05 28.07 13.05 C 28.78 13.52 29.44 14.06 30.06 14.64 C 30.06 14.64 38.46 0 38.46 0 Z M 20.08 12 C 12.79 12 6.81 18 6.81 25.33 C 6.81 32.66 12.79 38.66 20.08 38.66 C 27.38 38.66 33.36 32.66 33.36 25.33 C 33.36 18 27.38 12 20.08 12 Z M 19.42 30.66 C 19.42 30.66 18.09 30.66 18.09 30.66 C 18.09 30.66 18.09 29.33 18.09 29.33 C 18.09 29.33 19.42 29.33 19.42 29.33 C 19.42 29.33 19.42 20.66 19.42 20.66 C 19.42 20.66 18.09 20.66 18.09 20.66 C 18.09 20.66 18.09 19.33 18.09 19.33 C 18.09 19.33 22.08 19.33 22.08 19.33 C 22.08 19.33 22.08 20.66 22.08 20.66 C 22.08 20.66 20.75 20.66 20.75 20.66 C 20.75 20.66 20.75 29.33 20.75 29.33 C 20.75 29.33 22.08 29.33 22.08 29.33 C 22.08 29.33 22.08 30.66 22.08 30.66 C 22.08 30.66 20.75 30.66 20.75 30.66 C 20.75 30.66 19.42 30.66 19.42 30.66 Z" />
</svg>