<?xml version="1.0" encoding="utf-8"?>
<!-- Generator: Avocode 2.5.2 - http://avocode.com -->
<svg height="41" width="40" xmlns:xlink="http://www.w3.org/1999/xlink" xmlns="http://www.w3.org/2000/svg" viewBox="0 0 40 41">
    <path fill="#f7941d" fill-rule="evenodd" d="M 36.09 10.78 C 36.09 10.78 36.35 12.26 36.35 12.26 C 38.64 13.36 40 14.69 40 16.13 C 40 18.01 37.7 19.7 34 20.92 C 34 20.92 34 33.6 34 33.6 C 34 37.69 30.72 40.99 26.67 40.99 C 26.67 40.99 13.33 40.99 13.33 40.99 C 9.28 40.99 6 37.69 6 33.6 C 6 33.6 6 20.92 6 20.92 C 2.3 19.7 0 18.01 0 16.13 C 0 14.63 1.47 13.25 3.93 12.13 C 3.93 12.13 4.1 11.14 4.1 11.14 C 4.1 11.14 0.2 7.3 0.2 7.3 C 0.2 7.3 5.59 6.51 5.59 6.51 C 5.59 6.51 8 1.59 8 1.59 C 8 1.59 10.16 6 10.16 6 C 10.16 6 8.66 6.1 8.66 6.1 C 8.66 6.1 8 4.75 8 4.75 C 8 4.75 6.51 7.79 6.51 7.79 C 6.51 7.79 3.18 8.28 3.18 8.28 C 3.18 8.28 5.59 10.65 5.59 10.65 C 5.59 10.65 5.02 13.99 5.02 13.99 C 5.02 13.99 8 12.41 8 12.41 C 8 12.41 10.98 13.99 10.98 13.99 C 10.98 13.99 10.46 10.97 10.46 10.97 C 10.46 10.97 12.16 12.66 12.16 12.66 C 12.16 12.66 12.82 16.55 12.82 16.55 C 12.82 16.55 8 13.99 8 13.99 C 8 13.99 3.18 16.55 3.18 16.55 C 3.18 16.55 3.67 13.65 3.67 13.65 C 2.2 14.41 1.33 15.26 1.33 16.13 C 1.33 18.91 10.06 21.5 20 21.5 C 29.94 21.5 38.67 18.91 38.67 16.13 C 38.67 15.31 37.91 14.52 36.61 13.8 C 36.61 13.8 37.01 16.13 37.01 16.13 C 37.01 16.13 32.17 13.6 32.17 13.6 C 32.17 13.6 27.33 16.13 27.33 16.13 C 27.33 16.13 27.99 12.28 27.99 12.28 C 27.99 12.28 29.69 10.62 29.69 10.62 C 29.69 10.62 29.18 13.6 29.18 13.6 C 29.18 13.6 32.17 12.04 32.17 12.04 C 32.17 12.04 35.16 13.6 35.16 13.6 C 35.16 13.6 34.59 10.29 34.59 10.29 C 34.59 10.29 37.01 7.95 37.01 7.95 C 37.01 7.95 33.66 7.47 33.66 7.47 C 33.66 7.47 32.17 4.47 32.17 4.47 C 32.17 4.47 31.51 5.8 31.51 5.8 C 31.51 5.8 30 5.7 30 5.7 C 30 5.7 32.17 1.34 32.17 1.34 C 32.17 1.34 34.59 6.21 34.59 6.21 C 34.59 6.21 40.01 6.99 40.01 6.99 C 40.01 6.99 36.09 10.78 36.09 10.78 Z M 32.67 21.33 C 29.22 22.28 24.81 22.85 20 22.85 C 15.19 22.85 10.78 22.28 7.33 21.33 C 7.33 21.33 7.33 33.6 7.33 33.6 C 7.33 33.6 7.35 33.6 7.35 33.6 C 7.52 36.97 10.28 39.65 13.67 39.65 C 13.67 39.65 26.33 39.65 26.33 39.65 C 29.72 39.65 32.47 36.97 32.65 33.6 C 32.65 33.6 32.67 33.6 32.67 33.6 C 32.67 33.6 32.67 21.33 32.67 21.33 Z M 25.33 12.44 C 25.33 12.44 26.59 19.49 26.59 19.49 C 26.59 19.49 20 16.16 20 16.16 C 20 16.16 13.41 19.49 13.41 19.49 C 13.41 19.49 14.67 12.44 14.67 12.44 C 14.67 12.44 9.34 7.44 9.34 7.44 C 9.34 7.44 16.71 6.41 16.71 6.41 C 16.71 6.41 20 -0.01 20 -0.01 C 20 -0.01 23.29 6.41 23.29 6.41 C 23.29 6.41 30.66 7.44 30.66 7.44 C 30.66 7.44 25.33 12.44 25.33 12.44 Z M 22.31 7.71 C 22.31 7.71 20 3.2 20 3.2 C 20 3.2 17.68 7.71 17.68 7.71 C 17.68 7.71 12.51 8.43 12.51 8.43 C 12.51 8.43 16.26 11.94 16.26 11.94 C 16.26 11.94 15.37 16.9 15.37 16.9 C 15.37 16.9 20 14.56 20 14.56 C 20 14.56 24.63 16.9 24.63 16.9 C 24.63 16.9 23.74 11.94 23.74 11.94 C 23.74 11.94 27.49 8.43 27.49 8.43 C 27.49 8.43 22.31 7.71 22.31 7.71 Z" />
</svg>