<?xml version="1.0" encoding="utf-8"?>
<!-- Generator: Avocode 2.5.2 - http://avocode.com -->
<svg height="30" width="42" xmlns:xlink="http://www.w3.org/1999/xlink" xmlns="http://www.w3.org/2000/svg" viewBox="0 0 42 30">
    <path fill="#f7941d" fill-rule="evenodd" d="M 41.85 28.08 C 41.85 28.08 41.36 28.08 41.36 28.08 C 41.36 28.08 40.56 28.08 40.56 28.08 C 40.56 28.08 36.27 28.08 36.27 28.08 C 36.27 27.65 36.24 27.22 36.21 26.8 C 36.21 26.8 40.7 26.8 40.7 26.8 C 40.71 26.59 40.73 26.38 40.73 26.16 C 40.73 22.29 38.91 18.84 36.09 16.62 C 36.31 16.27 36.52 15.89 36.72 15.51 C 39.92 17.96 42 21.81 42 26.16 C 42 26.82 41.94 27.45 41.85 28.08 Z M 31.5 16.97 C 33.57 15.6 35 12.81 35 9.57 C 35 4.98 32.15 1.27 28.64 1.27 C 27.71 1.27 26.83 1.54 26.03 2.01 C 25.69 1.7 25.33 1.44 24.95 1.2 C 26.04 0.43 27.3 -0.01 28.64 -0.01 C 32.85 -0.01 36.27 4.28 36.27 9.57 C 36.27 13.14 34.71 16.25 32.39 17.9 C 32.11 17.58 31.81 17.27 31.5 16.97 Z M 27.54 16.4 C 31.61 18.7 34.36 23.06 34.36 28.08 C 34.36 28.73 34.3 29.37 34.21 29.99 C 34.21 29.99 33.73 29.99 33.73 29.99 C 33.73 29.99 32.93 29.99 32.93 29.99 C 32.93 29.99 9.07 29.99 9.07 29.99 C 9.07 29.99 8.27 29.99 8.27 29.99 C 8.27 29.99 7.79 29.99 7.79 29.99 C 7.7 29.37 7.64 28.73 7.64 28.08 C 7.64 23.73 9.71 19.87 12.92 17.42 C 13.11 17.81 13.32 18.18 13.55 18.54 C 10.73 20.76 8.91 24.2 8.91 28.08 C 8.91 28.29 8.93 28.5 8.94 28.72 C 8.94 28.72 33.06 28.72 33.06 28.72 C 33.07 28.5 33.09 28.29 33.09 28.08 C 33.09 23.54 30.6 19.6 26.92 17.52 C 25.52 19.68 23.39 21.06 21 21.06 C 16.78 21.06 13.36 16.77 13.36 11.48 C 13.36 6.2 16.78 1.91 21 1.91 C 25.22 1.91 28.64 6.2 28.64 11.48 C 28.64 13.28 28.23 14.97 27.54 16.4 Z M 21 3.18 C 17.49 3.18 14.64 6.9 14.64 11.48 C 14.64 16.07 17.49 19.78 21 19.78 C 24.51 19.78 27.36 16.07 27.36 11.48 C 27.36 6.9 24.51 3.18 21 3.18 Z M 15.96 2.01 C 15.17 1.54 14.29 1.27 13.36 1.27 C 9.85 1.27 7 4.98 7 9.57 C 7 12.81 8.43 15.6 10.5 16.97 C 10.19 17.27 9.9 17.58 9.61 17.89 C 7.29 16.25 5.73 13.14 5.73 9.57 C 5.73 4.28 9.15 -0.01 13.36 -0.01 C 14.7 -0.01 15.96 0.43 17.05 1.2 C 16.67 1.43 16.31 1.7 15.96 2.01 Z M 1.27 26.16 C 1.27 26.38 1.29 26.59 1.3 26.8 C 1.3 26.8 5.79 26.8 5.79 26.8 C 5.76 27.22 5.73 27.65 5.73 28.08 C 5.73 28.08 1.44 28.08 1.44 28.08 C 1.44 28.08 0.64 28.08 0.64 28.08 C 0.64 28.08 0.15 28.08 0.15 28.08 C 0.06 27.45 0 26.82 0 26.16 C 0 21.81 2.08 17.96 5.28 15.51 C 5.48 15.89 5.68 16.27 5.91 16.62 C 3.09 18.84 1.27 22.29 1.27 26.16 Z" />
</svg>