<?xml version="1.0" encoding="utf-8"?>
<!-- Generator: Avocode 2.5.2 - http://avocode.com -->
<svg height="40" width="40" xmlns:xlink="http://www.w3.org/1999/xlink" xmlns="http://www.w3.org/2000/svg" viewBox="0 0 40 40">
    <path fill="#f7941d" fill-rule="evenodd" d="M 39.33 11.99 C 38.96 11.99 38.67 11.69 38.67 11.33 C 38.67 11.33 38.67 2.37 38.67 2.37 C 38.67 2.37 18.15 22.89 18.15 22.89 C 17.89 23.15 17.47 23.15 17.2 22.89 C 17.2 22.89 10.13 15.82 10.13 15.82 C 8.58 17.38 3.52 22.43 1.53 24.43 C 2.7 32.49 9.6 38.66 18 38.66 C 27.23 38.66 34.66 31.22 34.66 21.99 C 34.66 18.57 33.64 15.39 31.88 12.75 C 31.88 12.75 32.83 11.8 32.83 11.8 C 34.82 14.7 36 18.2 36 21.99 C 36 31.93 27.94 39.99 18 39.99 C 8.06 39.99 0 31.93 0 21.99 C 0 12.05 8.06 3.99 18 3.99 C 21.77 3.99 25.26 5.15 28.15 7.13 C 28.15 7.13 27.2 8.08 27.2 8.08 C 24.57 6.34 21.41 5.32 18 5.32 C 8.77 5.32 1.33 12.76 1.33 21.99 C 1.33 22.23 1.36 22.46 1.37 22.7 C 4.17 19.9 9.66 14.41 9.66 14.41 C 9.92 14.15 10.35 14.15 10.61 14.41 C 10.61 14.41 17.68 21.48 17.68 21.48 C 17.68 21.48 37.83 1.33 37.83 1.33 C 37.83 1.33 28.67 1.33 28.67 1.33 C 28.3 1.33 28 1.03 28 0.66 C 28 0.29 28.3 -0.01 28.67 -0.01 C 28.67 -0.01 39.33 -0.01 39.33 -0.01 C 39.7 -0.01 40 0.29 40 0.66 C 40 0.66 40 11.33 40 11.33 C 40 11.69 39.7 11.99 39.33 11.99 Z" />
</svg>